<svg xmlns="http://www.w3.org/2000/svg"  viewBox="0 0 80 80" width="80px" height="80px"><path fill="#bae0bd" d="M4.5 4.5H75.5V75.5H4.5z"/><path fill="#5e9c76" d="M75,5v70H5V5H75 M76,4H4v72h72V4L76,4z"/><path fill="#fff" d="M43.5 21.5H68.5V26.5H43.5z"/><path fill="#5e9c76" d="M68,22v4H44v-4H68 M69,21h-1H44h-1v1v4v1h1h24h1v-1v-4V21L69,21z"/><path fill="#fff" d="M24.022 59.558L15.482 68.098 11.946 64.563 20.486 56.022 11.946 47.482 15.482 43.946 24.022 52.486 32.562 43.946 36.098 47.482 27.558 56.022 36.098 64.563 32.562 68.098z"/><path fill="#5e9c76" d="M32.562,44.654l2.828,2.828l-8.54,8.54l8.54,8.54l-2.828,2.828l-8.54-8.54l-8.54,8.54l-2.828-2.828 l8.54-8.54l-8.54-8.54l2.828-2.828l8.54,8.54L32.562,44.654 M32.562,43.24l-0.707,0.707l-7.833,7.833l-7.833-7.833l-0.707-0.707 l-0.707,0.707l-2.828,2.828l-0.707,0.707l0.707,0.707l7.833,7.833l-7.833,7.833l-0.707,0.707l0.707,0.707l2.828,2.828l0.707,0.707 l0.707-0.707l7.833-7.833l7.833,7.833l0.707,0.707l0.707-0.707l2.828-2.828l0.707-0.707l-0.707-0.707l-7.833-7.833l7.833-7.833 l0.707-0.707l-0.707-0.707l-2.828-2.828L32.562,43.24L32.562,43.24z"/><g><path fill="#fff" d="M43.5 47.5H68.5V52.5H43.5z"/><path fill="#5e9c76" d="M68,48v4H44v-4H68 M69,47h-1H44h-1v1v4v1h1h24h1v-1v-4V47L69,47z"/></g><g><path fill="#fff" d="M43.5 57.5H68.5V62.5H43.5z"/><path fill="#5e9c76" d="M68,58v4H44v-4H68 M69,57h-1H44h-1v1v4v1h1h24h1v-1v-4V57L69,57z"/></g><g><path fill="#fff" d="M21.5 36.5L21.5 26.5 11.5 26.5 11.5 21.5 21.5 21.5 21.5 11.5 26.5 11.5 26.5 21.5 36.5 21.5 36.5 26.5 26.5 26.5 26.5 36.5z"/><path fill="#5e9c76" d="M26,12v10h10v4H26v10h-4V26H12v-4h10V12H26 M27,11h-1h-4h-1v1v9h-9h-1v1v4v1h1h9v9v1h1h4h1v-1v-9h9 h1v-1v-4v-1h-1h-9v-9V11L27,11z"/></g></svg>